# xmcd
#
# Track frame offsets:
#	150
#	12569
#	24134
#	35459
#	47385
#	58979
#	73781
#	87208
#	97294
#	111504
#	124319
#	136107
#
# Disc length: 1943 seconds
#
# Revision: 1
# Processed by: cddbd v1.5.2PL0 Copyright (c) Steve Scherf et al.
# Submitted via: audiograbber 1.83.01
#
DISCID=a707950c
DTITLE=Liz Anderson - Country Style
DYEAR=1969
DGENRE=Country
TTITLE0=Why Don't They Go Home
TTITLE1=Maybe Not
TTITLE2=Money, Marbles And Chalk
TTITLE3=I Walk Alone
TTITLE4=What's Made Milwaukee Famous (Has Made A Loser Out Of Me)
TTITLE5=This Stranger, My Little Girl
TTITLE6=Nothing Between Us
TTITLE7=Free
TTITLE8=When The Grass Grows Over Me
TTITLE9=D-I-V-O-R-C-E
TTITLE10=Eyes, Don't Come Crying To Me
TTITLE11=I Already Know (What I'm Getting For My Birthday)
EXTD=
EXTT0=
EXTT1=
EXTT2=
EXTT3=
EXTT4=
EXTT5=
EXTT6=
EXTT7=
EXTT8=
EXTT9=
EXTT10=
EXTT11=
PLAYORDER=
